<?xml version="1.0" standalone="no"?>
<svg version="1.1" preserveAspectRatio="xMidYMid meet" viewBox="0 0 256 256" class="ng-element" data-id="cab40b96de67b0f0f866fb68b1ecaa50" style="fill: rgb(255, 255, 255); width: 14px; height: 14px; filter: none;" xmlns="http://www.w3.org/2000/svg"><path fill="#343434" d="M203.438,116.838c3.26,3.226,4.89,6.995,4.89,11.307c0,4.346-1.63,8.115-4.89,11.34L91.609,251.179 C88.384,254.37,84.649,256,80.371,256c-4.244,0-8.013-1.63-11.239-4.821l-16.638-16.638c-3.226-3.26-4.821-6.995-4.821-11.273 s1.596-8.013,4.821-11.204l84.58-84.564l-84.58-83.562c-3.226-3.226-4.821-6.927-4.821-11.069c0-4.142,1.596-7.843,4.821-11.069 L69.132,4.822C72.357,1.596,76.126,0,80.473,0c4.312,0,8.047,1.596,11.137,4.822L203.438,116.838L203.438,116.838z" style="fill: rgb(255, 255, 255);"/></svg>