<?xml version="1.0" standalone="no"?>
<svg version="1.1" preserveAspectRatio="xMidYMid meet" viewBox="0 0 24 24" class="ng-element" data-id="5a27897c1a6b528f14a97cf85f4372e8" style="fill: rgb(2, 151, 167); width: 32px; height: 32px; filter: none;" xmlns="http://www.w3.org/2000/svg"><g><path xmlns:default="http://www.w3.org/2000/svg" id="thumbs-o-up" d="M6.47,17.8c-0.26,0.25-0.67,0.24-0.92-0.02c-0.25-0.26-0.24-0.67,0.02-0.92c0.26-0.25,0.67-0.24,0.92,0.02  C6.6,17,6.67,17.16,6.67,17.33C6.67,17.51,6.6,17.68,6.47,17.8z M18.66,11.33c-0.01,0.29-0.09,0.58-0.22,0.84  c-0.08,0.26-0.29,0.45-0.56,0.49c0.12,0.14,0.21,0.31,0.26,0.49c0.06,0.19,0.1,0.38,0.1,0.58c0.01,0.48-0.18,0.95-0.54,1.27  c0.13,0.22,0.19,0.47,0.19,0.72c0,0.27-0.06,0.53-0.18,0.77c-0.1,0.23-0.27,0.42-0.49,0.55c0.03,0.19,0.05,0.39,0.05,0.58  c0,1.16-0.67,1.74-2,1.74H14c-1.22-0.06-2.42-0.32-3.56-0.76l-0.3-0.11l-0.37-0.13L9.4,18.21L9,18.1L8.66,18H8.34H8v-6.67h0.34  c0.13,0,0.25-0.03,0.37-0.09C8.86,11.18,8.99,11.1,9.12,11l0.4-0.37c0.15-0.15,0.29-0.3,0.42-0.46l0.36-0.44l0.33-0.43l0.24-0.31  c0.38-0.47,0.65-0.79,0.8-0.95c0.3-0.32,0.51-0.71,0.62-1.14c0.13-0.46,0.23-0.9,0.32-1.31c0.04-0.34,0.17-0.66,0.39-0.92  c0.5-0.07,0.99,0.12,1.33,0.49c0.25,0.46,0.37,0.99,0.33,1.51c-0.05,0.59-0.22,1.15-0.5,1.67c-0.28,0.51-0.45,1.08-0.5,1.66h3.66  c0.35,0,0.69,0.14,0.93,0.4C18.51,10.64,18.66,10.98,18.66,11.33L18.66,11.33z M19.99,11.33c-0.03-1.46-1.21-2.63-2.67-2.65H15.5  c0.32-0.62,0.49-1.3,0.5-2c0.03-0.67-0.09-1.33-0.36-1.94c-0.22-0.46-0.6-0.84-1.06-1.06C14.09,3.45,13.55,3.33,13,3.34  c-0.35,0-0.69,0.14-0.94,0.39c-0.31,0.31-0.54,0.7-0.65,1.12c-0.13,0.46-0.24,0.9-0.32,1.32c-0.04,0.33-0.17,0.63-0.37,0.89  c-0.34,0.37-0.71,0.81-1.11,1.33C9.2,8.98,8.72,9.52,8.19,10H5.34C4.61,9.99,4.01,10.58,4,11.32c0,0,0,0.01,0,0.01V18  c0,0.73,0.6,1.33,1.33,1.33h3c0.49,0.09,0.97,0.23,1.44,0.42c0.85,0.3,1.6,0.53,2.25,0.68c0.66,0.16,1.33,0.23,2,0.23h1.34  c0.87,0.04,1.71-0.26,2.36-0.84c0.61-0.6,0.93-1.44,0.88-2.29c0.41-0.53,0.63-1.18,0.62-1.85c0.01-0.15,0.01-0.3,0-0.45  c0.26-0.46,0.4-0.97,0.4-1.5c-0.01-0.25-0.05-0.49-0.13-0.73c0.34-0.5,0.52-1.09,0.51-1.7l0,0L19.99,11.33z" style="fill: rgb(2, 151, 167);"/></g></svg>