<?xml version="1.0" standalone="no"?>
<svg version="1.1" preserveAspectRatio="xMidYMid meet" viewBox="0 0 22 22" class="ng-element" data-id="adcd8da08e3298c6669c5660c6978f10" style="fill: rgb(255, 255, 255); width: 24px; height: 24px; filter: none;" xmlns="http://www.w3.org/2000/svg"><g><defs> </defs> <rect display="none" fill="#FFA400" width="22" height="22" style="fill: rgb(255, 255, 255);"/> <rect id="_x3C_Slice_x3E__109_" display="none" fill="none" width="22" height="22" style="fill: rgb(255, 255, 255);"/> <path fill-rule="evenodd" clip-rule="evenodd" d="M9,4h4V0H9V4z M15,0v4h4V0H15z M3,4h4V0H3V4z M9,10h4V6H9V10z M15,10h4V6h-4V10z M3,10h4V6H3V10z M9,16h4v-4H9V16z M15,16h4v-4h-4V16z M3,16h4v-4H3V16z M9,22h4v-4H9V22z" style="fill: rgb(255, 255, 255);"/> </g></svg>