<?xml version="1.0" standalone="no"?>
<svg version="1.1" preserveAspectRatio="xMidYMid meet" viewBox="0 0 75 76" class="ng-element" data-id="01334c29d85501a4ef936f4d95d272ef" style="width: 75px; height: 76px; filter: none;" xmlns="http://www.w3.org/2000/svg"><g><defs> </defs> <path fill="#FFFFFF" d="M68.722,35.698c-1.464-2.268-3.43-2.189-5.64-3.212c-1.447-0.669-3.858-1.869-5.438-1.145 c-0.832,0.382-1.486-0.689-2.256-1.147c-0.834-0.496-1.83-0.969-2.823-0.923c-0.915,0.042-1.101,0.704-1.693,0.003 c-0.763-0.901-1.457-1.855-2.224-2.755c-1.364-1.598-3.336-2.423-5.42-1.23c-1.694,0.969-1.968,2.815-2.34,5.022 c-0.911-0.744-2.037-2.738-2.485-3.813c-0.627-1.502-4.224-10.635-5.353-13.739c-0.987-2.712-2.445-6.505-4.062-7.738 c-2.041-1.558-4.911-0.499-5.613,1.945c-0.643,2.236,0.982,6.506,2.022,9.364c1.353,3.714,2.283,6.273,3.518,9.664 c1.028,2.825,1.964,5.696,2.993,8.515c0.643,1.764-0.289,1.54-1.116,2.883c-0.626,1.018-0.672,2.24-0.464,3.387 c0.414,2.289,0.553,2.836,1.211,5.986c0.488,2.34,1.536,5.579,2.834,7.618c2.734,4.296,8.043,6.272,11.947,9.281 c1.932,1.488,4.021,3.094,4.852,5.376c0.357,0.983,1.878,5.159,1.878,5.159c0.399,1.099,1.616,1.674,2.716,1.274l5.039-1.834 l11.363-4.135l1.253-0.456c1.099-0.4,1.671-1.626,1.271-2.725c0,0-0.593-1.629-0.625-1.718c-1.694-4.653-2.23-5.344-2.322-13.603 C71.689,46.019,71.504,40.006,68.722,35.698z"/> <path d="M25.809,4.933c0.455-0.166,1.016-0.318,1.461,0.094c0.457,0.07,0.896,0.257,1.289,0.556c1.56,1.19,3.148,5.554,3.826,7.417 c1.118,3.072,4.739,12.271,5.364,13.77c0.483,1.158,1.673,3.257,2.692,4.089l0.943,0.771l0.203-1.202l0.026-0.157 c0.351-2.084,0.603-3.589,1.966-4.368c0.199-0.114,0.401-0.209,0.602-0.282c1.838-0.669,3.25,0.563,3.928,1.357 c0.385,0.451,0.761,0.929,1.125,1.391c0.353,0.449,0.717,0.913,1.098,1.361c0.449,0.532,0.947,0.689,1.52,0.48 c0.066-0.024,0.135-0.054,0.209-0.085c0.058-0.025,0.118-0.051,0.186-0.076c0.123-0.044,0.231-0.067,0.353-0.072 c0.868-0.04,1.801,0.451,2.427,0.824c0.181,0.107,0.375,0.278,0.58,0.46c0.536,0.471,1.27,1.117,2.21,0.775 c0.042-0.015,0.083-0.033,0.125-0.052c0.037-0.017,0.075-0.032,0.112-0.045c1.222-0.444,3.278,0.513,4.507,1.085l0.225,0.104 c0.676,0.313,1.312,0.522,1.925,0.724c1.404,0.462,2.513,0.828,3.418,2.229c2.576,3.989,2.85,9.562,2.908,14.926 c0.085,7.666,0.556,8.937,1.951,12.712c0.129,0.351,0.268,0.723,0.414,1.126l0.625,1.718c0.267,0.734-0.113,1.549-0.848,1.816 l-1.253,0.456l-11.362,4.135l-5.04,1.834c-0.729,0.266-1.539-0.116-1.806-0.851l-1.878-5.159c-0.899-2.469-3.114-4.175-5.067-5.681 l-0.018-0.014c-1.308-1.007-2.78-1.909-4.205-2.781c-2.863-1.753-5.826-3.566-7.578-6.319c-1.229-1.932-2.261-5.1-2.738-7.383 c-0.164-0.787-0.297-1.412-0.408-1.941c-0.336-1.591-0.49-2.318-0.799-4.026c-0.213-1.173-0.088-2.146,0.37-2.889 c0.22-0.357,0.446-0.579,0.666-0.792c0.647-0.632,1.062-1.195,0.513-2.707c-0.521-1.424-1.026-2.889-1.515-4.306 c-0.477-1.381-0.97-2.811-1.479-4.208l-3.517-9.664l-0.141-0.383c-0.963-2.639-2.419-6.626-1.867-8.543 c0.112-0.393,0.295-0.749,0.535-1.054C24.603,5.639,25.287,5.122,25.809,4.933 M25.65,4.502c-1.048,0.381-1.928,1.252-2.275,2.463 c-0.643,2.236,0.982,6.506,2.022,9.364c1.353,3.714,2.283,6.273,3.518,9.664c1.028,2.825,1.964,5.696,2.993,8.515 c0.643,1.764-0.289,1.54-1.116,2.883c-0.626,1.018-0.672,2.24-0.464,3.387c0.414,2.289,0.553,2.836,1.211,5.986 c0.488,2.34,1.536,5.579,2.834,7.618c2.734,4.296,8.043,6.272,11.947,9.281c1.932,1.488,4.021,3.094,4.852,5.376 c0.357,0.983,1.878,5.159,1.878,5.159c0.399,1.099,1.616,1.674,2.716,1.274l5.039-1.834l11.363-4.135l1.253-0.456 c1.099-0.4,1.671-1.626,1.271-2.725c0,0-0.593-1.629-0.625-1.718c-1.694-4.653-2.23-5.344-2.322-13.603 c-0.055-4.982-0.24-10.995-3.022-15.303c-1.464-2.268-3.43-2.189-5.64-3.212c-1.396-0.646-3.693-1.787-5.271-1.213 c-0.056,0.021-0.111,0.043-0.166,0.068c-0.023,0.011-0.048,0.021-0.071,0.03c-0.799,0.291-1.438-0.733-2.185-1.177 c-0.834-0.496-1.83-0.969-2.823-0.923c-0.226,0.01-0.407,0.059-0.562,0.115c-0.152,0.056-0.279,0.119-0.395,0.161 c-0.24,0.087-0.436,0.083-0.737-0.272c-0.763-0.901-1.457-1.855-2.224-2.755c-1.208-1.415-2.893-2.224-4.709-1.563 c-0.236,0.085-0.473,0.196-0.711,0.333c-1.694,0.969-1.968,2.815-2.34,5.022c-0.911-0.744-2.037-2.738-2.485-3.813 c-0.627-1.502-4.224-10.635-5.353-13.739c-0.987-2.712-2.445-6.505-4.062-7.738C27.959,4.233,26.717,4.113,25.65,4.502L25.65,4.502z "/> <path d="M27.414,4.682c-0.506-0.208-1.213-0.382-1.764-0.18c-0.868,0.317-1.512,1.257-1.609,2.105 c-0.126,1.088,0.788,5.013,2.054,5.295c0.979,0.219,2.874-0.368,3.55-1.123c0.697-0.78,0.323-1.866-0.01-2.782 C29.231,6.889,28.52,5.137,27.414,4.682z M29.276,10.498c-0.569,0.673-2.19,1.169-3.04,0.952c-1.097-0.28-1.85-3.861-1.762-4.846 c0.111-1.256,1.535-2.155,2.669-1.644c0.962,0.435,1.657,2.036,2.026,3.05C29.474,8.848,29.863,9.803,29.276,10.498z"/> <path d="M22.174,6.62c0.438-1.526,1.578-2.757,3.049-3.292c1.529-0.557,3.221-0.296,4.523,0.698s2.419,3.116,3.428,5.566 c0.494-1.438,0.52-3.046-0.041-4.586c-1.299-3.569-5.243-5.408-8.812-4.109c-3.568,1.298-5.407,5.243-4.109,8.812 c0.536,1.475,1.526,2.653,2.754,3.438C22.143,10.55,21.692,8.296,22.174,6.62z"/> <polygon points="14.027,22.454 7.455,32.785 0.885,22.454 4.762,22.454 4.762,12.896 0.885,12.896 7.455,2.565 14.027,12.896 10.148,12.896 10.148,22.454 "/> <rect id="_x3C_Slice_x3E__43_" fill="none" width="75" height="76"/> </g></svg>