<?xml version="1.0" standalone="no"?>
<svg version="1.1" preserveAspectRatio="xMidYMid meet" viewBox="0 0 50 50" class="ng-element" data-id="07caf90a33550919dcc41fa55413020a" style="fill: rgb(255, 255, 255); width: 24px; height: 24px; filter: none;" xmlns="http://www.w3.org/2000/svg"><path d="M25,0C25,0,25,0,25,0C25,0,25,0,25,0C25,0,24.9,0,25,0C11.2,0,0,11.2,0,25c0,13.8,11.2,25,24.9,25c0,0,0,0,0,0c0,0,0,0,0,0  c0,0,0,0,0,0c13.8,0,25-11.2,25-25C50,11.2,38.8,0,25,0z M26,15c2.7-0.1,5.2-0.4,7.7-1c0.7,2.9,1.2,6.3,1.3,10.1h-9V15z M26,13V2.2  c2.7,0.7,5.4,4.3,7.2,9.9C30.9,12.6,28.5,12.9,26,13z M24,2.1V13c-2.5-0.1-4.9-0.4-7.2-1C18.5,6.4,21.3,2.8,24,2.1z M24,15v9h-9.1  c0.1-3.7,0.5-7.1,1.3-10.1C18.7,14.5,21.3,14.9,24,15z M12.9,24H2c0.2-5.1,2.1-9.9,5.2-13.6c2.2,1.2,4.6,2.2,7.1,3  C13.5,16.6,13,20.2,12.9,24z M12.9,26c0.1,3.8,0.6,7.4,1.4,10.6c-2.5,0.8-4.8,1.8-7.1,3C4.2,35.9,2.2,31.1,2,26H12.9z M14.9,26H24v9  c-2.7,0.1-5.3,0.4-7.8,1C15.5,33.1,15,29.7,14.9,26z M24,37v10.8c-2.7-0.7-5.5-4.3-7.2-9.9C19.1,37.4,21.5,37.1,24,37z M26,47.8V37  c2.5,0.1,4.9,0.4,7.2,1C31.4,43.5,28.7,47.1,26,47.8z M26,35v-9h9c-0.1,3.7-0.5,7.1-1.3,10.1C31.2,35.5,28.7,35.1,26,35z M37,26h11  c-0.2,5.1-2.1,9.8-5.2,13.6c-2.2-1.2-4.6-2.2-7.1-3C36.5,33.4,36.9,29.8,37,26z M37,24c-0.1-3.8-0.6-7.4-1.4-10.6  c2.5-0.8,4.9-1.8,7.1-3c3.1,3.7,5,8.4,5.2,13.6H37z M41.4,8.9c-2,1.1-4.1,1.9-6.3,2.6c-1.2-3.8-2.8-6.8-4.8-8.8  C34.6,3.7,38.4,5.9,41.4,8.9z M19.6,2.7c-1.9,2-3.6,5.1-4.7,8.8c-2.2-0.7-4.3-1.5-6.2-2.6C11.6,5.9,15.3,3.7,19.6,2.7z M8.6,41.1  c2-1.1,4.1-1.9,6.2-2.6c1.2,3.7,2.8,6.8,4.7,8.8C15.3,46.3,11.6,44.1,8.6,41.1z M30.4,47.4c1.9-2,3.6-5.1,4.8-8.9  c2.2,0.7,4.3,1.5,6.3,2.6C38.4,44.1,34.6,46.3,30.4,47.4z" style="fill: rgb(255, 255, 255);"/><g/></svg>